<?xml version="1.0" encoding="utf-8"?>
<!-- Generator: Adobe Illustrator 12.0.0, SVG Export Plug-In . SVG Version: 6.00 Build 51448)  -->
<!DOCTYPE svg PUBLIC "-//W3C//DTD SVG 1.1//EN" "http://www.w3.org/Graphics/SVG/1.1/DTD/svg11.dtd" [
	<!ENTITY ns_svg "http://www.w3.org/2000/svg">
	<!ENTITY ns_xlink "http://www.w3.org/1999/xlink">
]>
<svg  version="1.1" id="Layer_1" xmlns="&ns_svg;" xmlns:xlink="&ns_xlink;" width="19.918" height="19.917"
	 viewBox="0 0 19.918 19.917" overflow="visible" enable-background="new 0 0 19.918 19.917" xml:space="preserve">
<circle fill="#DDDDDD" cx="10.038" cy="9.953" r="9.45"/>
<circle fill="#EEEEEE" cx="9.981" cy="9.9" r="7.533"/>
<path fill="#DB7353" d="M9.959,18.917C5.019,18.917,1,14.897,1,9.958S5.019,1,9.959,1c4.939,0,8.959,4.019,8.959,8.958
	S14.898,18.917,9.959,18.917 M9.959,0C4.468,0,0,4.467,0,9.958c0,5.491,4.468,9.959,9.959,9.959s9.959-4.469,9.959-9.959
	C19.918,4.467,15.45,0,9.959,0"/>
<path fill="#DB7353" d="M8.193,14.55l-0.707-0.707l3.885-3.885L7.486,6.074l0.707-0.707l4.592,4.591L8.193,14.55z M9.959,2
	C5.57,2,2,5.57,2,9.958c0,4.389,3.57,7.959,7.959,7.959c4.389,0,7.959-3.57,7.959-7.959C17.918,5.57,14.348,2,9.959,2"/>
</svg>
