<?xml version="1.0" encoding="utf-8"?>
<!-- Generator: Adobe Illustrator 12.0.0, SVG Export Plug-In . SVG Version: 6.00 Build 51448)  -->
<!DOCTYPE svg PUBLIC "-//W3C//DTD SVG 1.1//EN" "http://www.w3.org/Graphics/SVG/1.1/DTD/svg11.dtd" [
	<!ENTITY ns_svg "http://www.w3.org/2000/svg">
	<!ENTITY ns_xlink "http://www.w3.org/1999/xlink">
]>
<svg  version="1.1" id="Layer_1" xmlns="&ns_svg;" xmlns:xlink="&ns_xlink;" width="15.984" height="37.3"
	 viewBox="0 0 15.984 37.3" overflow="visible" enable-background="new 0 0 15.984 37.3" xml:space="preserve">
<path fill="#d7d7d1" d="M8.4,10.999l1.387-2.588l1.388,2.588H8.4z M15.942,25.393c-0.009-0.031-0.094-0.248-0.108-0.287
	c-0.015-0.037-0.085-0.238-0.1-0.309c-0.017-0.068-0.078-0.186-0.094-0.223c-0.016-0.039-0.054-0.193-0.068-0.232
	c-0.017-0.037-0.217-0.378-0.303-0.463c-0.084-0.085-0.199-0.232-0.277-0.34c-0.076-0.107-0.084-0.247-0.239-0.439
	c-0.155-0.193-0.44-0.572-0.625-0.881c-0.186-0.309-0.139-0.478-0.178-0.703c-0.038-0.223,0.124-2.152,0.155-2.399
	c0.03-0.248,0.115-1.398,0.123-1.691c0.003-0.112,0.007-0.396,0-0.721c-0.01-0.519-0.046-1.148-0.154-1.371
	c-0.177-0.363-0.255-1.004-0.255-1.089c0-0.084-0.009-0.394-0.009-0.478c0-0.085,0.031-0.433,0.094-0.865
	c0.062-0.432,0.077-1.799,0.077-1.799s-0.077-0.424-0.009-0.733c0.012-0.051,0.019-0.105,0.027-0.157
	c0.125-0.764,0.065-1.658-0.173-2.445c-0.255-0.841-1.274-1.235-1.822-1.343c-0.25-0.049-0.641-0.14-1.015-0.266
	c-0.449-0.151-0.874-0.351-1-0.591c-0.232-0.44-0.146-1.812-0.146-1.812s0.069,0.005,0.168,0.098s0.191,0.064,0.232-0.017
	c0.04-0.081,0.127-0.319,0.121-0.371c0.104-0.5-0.162-0.729-0.399-0.584l0.021-0.74c0,0,0.003-0.069-0.012-0.188
	C9.952,1.742,9.88,1.362,9.73,0.895C9.556,0.351,8.791,0.008,8.003,0H7.982C7.193,0.008,6.429,0.351,6.254,0.895
	C6.181,1.124,6.126,1.332,6.087,1.509C6.045,1.694,6.021,1.845,6.008,1.953C5.995,2.072,5.997,2.141,5.997,2.141l0.021,0.74
	c-0.237-0.145-0.504,0.084-0.4,0.584C5.613,3.517,5.699,3.755,5.74,3.836s0.133,0.11,0.231,0.017C6.07,3.76,6.139,3.755,6.139,3.755
	s0.087,1.372-0.145,1.812C5.763,6.007,4.528,6.316,3.98,6.424C3.431,6.532,2.412,6.926,2.158,7.767
	c-0.239,0.787-0.299,1.681-0.173,2.445c0.009,0.052,0.016,0.106,0.026,0.157c0.07,0.309-0.008,0.733-0.008,0.733
	s0.016,1.367,0.078,1.799c0.061,0.432,0.092,0.78,0.092,0.865c0,0.084-0.008,0.394-0.008,0.478c0,0.085-0.077,0.726-0.254,1.089
	c-0.178,0.363-0.163,1.799-0.155,2.092c0.008,0.293,0.093,1.443,0.124,1.691c0.031,0.247,0.193,2.177,0.154,2.399
	c-0.039,0.226,0.008,0.395-0.177,0.703c-0.186,0.309-0.471,0.688-0.626,0.881c-0.154,0.192-0.162,0.332-0.239,0.439
	c-0.078,0.107-0.193,0.255-0.278,0.34s-0.286,0.426-0.301,0.463c-0.016,0.039-0.054,0.193-0.07,0.232
	c-0.015,0.037-0.077,0.154-0.092,0.223c-0.015,0.07-0.085,0.271-0.1,0.309c-0.016,0.039-0.101,0.256-0.109,0.287
	c-0.007,0.03-0.1,0.207,0.016,0.301c0.015,0.177,0,0.277,0.093,0.309c0.092,0.031,0.208-0.039,0.246-0.093
	c0,0,0.003,0.003,0.006,0.005c0.029,0.021,0.168,0.119,0.265-0.014c0.108-0.146,0.116-0.517,0.177-0.616
	c0.062-0.101,0.24-0.409,0.255-0.448c0.016-0.039,0.247-0.238,0.402-0.518c0.054-0.018,0.102-0.041,0.146-0.068
	c0.184-0.111,0.279-0.275,0.347-0.332c0.086-0.07,0.086,0.023,0.124-0.016c0.039-0.039-0.108,0.246-0.131,0.347
	c-0.023,0.101-0.271,0.563,0.038,0.703c0.247,0.054,0.332-0.131,0.379-0.216c0.046-0.086,0.139-0.186,0.2-0.379
	c0.062-0.193,0.17-0.455,0.201-0.502c0.031-0.047,0.517-0.362,0.479-1.034c0.007-0.263-0.124-0.355-0.124-0.355
	s0.031-0.463,0.062-0.741c0.014-0.125,0.032-0.381,0.049-0.633c0.017-0.249,0.032-0.492,0.04-0.604
	c0.002-0.029,0.003-0.051,0.004-0.061c0.007-0.085,0.193-1.212,0.277-1.467c0.086-0.254,0.225-1.011,0.248-1.428
	c0.023-0.417,0.185-1.459,0.131-1.969c-0.054-0.509-0.078-0.918-0.07-1.011c0.008-0.092,0.132-0.888,0.108-1.313
	c-0.017-0.323-0.026-0.843-0.012-1.185c0.027,0.158,0.23,1.368,0.252,2.406c0.069,0.37,0.224,0.385,0.123,0.833
	c-0.1,0.448-0.393,1.181-0.301,1.722c-0.085,0.733,0.024,1.065,0.024,1.158c0,0.083-0.098,0.643-0.142,1.115
	c-0.005,0.054-0.01,0.107-0.013,0.158c0,0.006-0.005,0.016-0.008,0.021v8.228l8.118,9.604v-8.214v-1.39v-0.843v-7.385
	c-0.002-0.006-0.007-0.016-0.008-0.021c-0.032-0.496-0.154-1.182-0.154-1.273c0-0.093,0.108-0.425,0.023-1.158
	c0.093-0.541-0.201-1.273-0.301-1.722c-0.101-0.448,0.054-0.463,0.124-0.833c0.015-0.746,0.124-1.579,0.193-2.049
	c0.028-0.183,0.05-0.313,0.058-0.357c0.006,0.138,0.008,0.305,0.007,0.476c-0.001,0.254-0.008,0.517-0.02,0.709
	c-0.022,0.425,0.101,1.221,0.108,1.313c0.008,0.093-0.015,0.502-0.07,1.011c-0.054,0.51,0.109,1.552,0.133,1.969
	c0.022,0.417,0.161,1.174,0.246,1.428c0.085,0.255,0.271,1.382,0.278,1.467c0.004,0.047,0.022,0.354,0.043,0.664
	c0.017,0.252,0.036,0.508,0.049,0.633c0.031,0.278,0.063,0.741,0.063,0.741s-0.131,0.093-0.123,0.355
	c-0.039,0.672,0.447,0.987,0.478,1.034c0.031,0.047,0.14,0.309,0.201,0.502c0.063,0.193,0.155,0.293,0.201,0.379
	c0.046,0.085,0.131,0.27,0.378,0.216c0.309-0.14,0.062-0.603,0.038-0.703s-0.169-0.386-0.13-0.347
	c0.038,0.039,0.038-0.055,0.123,0.016c0.067,0.057,0.164,0.221,0.348,0.332c0.043,0.027,0.091,0.051,0.146,0.068
	c0.153,0.279,0.386,0.479,0.401,0.518s0.192,0.348,0.254,0.448c0.063,0.1,0.07,0.471,0.179,0.616c0.107,0.147,0.27,0.009,0.27,0.009
	c0.038,0.054,0.154,0.124,0.247,0.093c0.092-0.031,0.077-0.132,0.092-0.309C16.042,25.6,15.95,25.423,15.942,25.393"/>
</svg>
