<?xml version="1.0" encoding="utf-8"?>
<!-- Generator: Adobe Illustrator 12.0.0, SVG Export Plug-In . SVG Version: 6.00 Build 51448)  -->
<!DOCTYPE svg PUBLIC "-//W3C//DTD SVG 1.1//EN" "http://www.w3.org/Graphics/SVG/1.1/DTD/svg11.dtd" [
	<!ENTITY ns_svg "http://www.w3.org/2000/svg">
	<!ENTITY ns_xlink "http://www.w3.org/1999/xlink">
]>
<svg  version="1.1" id="Layer_1" xmlns="&ns_svg;" xmlns:xlink="&ns_xlink;" width="50.208" height="50.208"
	 viewBox="0 0 50.208 50.208" overflow="visible" enable-background="new 0 0 50.208 50.208" xml:space="preserve">
<path fill="#4A5A2B" d="M49.193,24.254c0-13.071-10.597-23.667-23.667-23.667c-13.071,0-23.667,10.596-23.667,23.667
	c0,4.873,1.473,9.402,3.997,13.166c0.949,1.415-3.729,10.899-3.729,10.899s9.783-4.618,11.366-3.682
	c3.526,2.086,7.64,3.283,12.033,3.283C38.596,47.92,49.193,37.325,49.193,24.254z"/>
<g>
	<path id="WhatsApp" fill="#FFFFFF" d="M50.208,24.457c0,13.508-11.033,24.458-24.646,24.458c-4.322,0-8.383-1.104-11.915-3.043
		L0,50.208l4.449-13.122C2.205,33.4,0.912,29.078,0.912,24.457C0.912,10.95,11.947,0,25.561,0C39.174,0,50.208,10.95,50.208,24.457z
		 M25.561,3.896c-11.428,0-20.723,9.224-20.723,20.562c0,4.5,1.466,8.666,3.947,12.056l-2.589,7.636l7.963-2.531
		c3.272,2.148,7.191,3.402,11.401,3.402c11.426,0,20.723-9.223,20.723-20.561C46.284,13.12,36.987,3.896,25.561,3.896z
		 M38.006,30.09c-0.152-0.249-0.555-0.399-1.158-0.699s-3.575-1.75-4.127-1.95c-0.555-0.199-0.959-0.3-1.361,0.3
		c-0.401,0.601-1.56,1.95-1.912,2.35c-0.354,0.401-0.705,0.452-1.311,0.151c-0.604-0.3-2.55-0.934-4.857-2.975
		c-1.796-1.589-3.009-3.551-3.361-4.151c-0.352-0.6-0.037-0.924,0.265-1.223c0.272-0.269,0.604-0.699,0.907-1.05
		c0.303-0.35,0.403-0.6,0.604-1c0.202-0.399,0.102-0.75-0.051-1.051c-0.15-0.299-1.36-3.249-1.863-4.45
		c-0.503-1.199-1.006-0.999-1.359-0.999c-0.352,0-0.755-0.051-1.158-0.051s-1.058,0.15-1.612,0.75c-0.553,0.601-2.114,2.051-2.114,5
		c0,2.95,2.164,5.8,2.467,6.199c0.302,0.4,4.178,6.65,10.32,9.051c6.143,2.399,6.143,1.599,7.251,1.498
		c1.106-0.1,3.573-1.449,4.079-2.849C38.157,31.54,38.157,30.34,38.006,30.09z"/>
</g>
</svg>
